<?xml version="1.0" encoding="UTF-8" standalone="no"?>
<!DOCTYPE svg PUBLIC "-//W3C//DTD SVG 1.1//EN"
 "http://www.w3.org/Graphics/SVG/1.1/DTD/svg11.dtd">
<!-- Generated by graphviz version 2.43.0 (0)
 -->
<!-- Title: Thread Organization Pages: 1 -->
<svg width="305pt" height="265pt"
 viewBox="0.00 0.00 304.72 264.87" xmlns="http://www.w3.org/2000/svg" xmlns:xlink="http://www.w3.org/1999/xlink">
<g id="graph0" class="graph" transform="scale(1 1) rotate(0) translate(4 260.87)">
<title>Thread Organization</title>
<polygon fill="white" stroke="transparent" points="-4,4 -4,-260.87 300.72,-260.87 300.72,4 -4,4"/>
<!-- grid -->
<g id="node1" class="node">
<title>grid</title>
<polygon fill="lightblue" stroke="black" points="54,-90 0,-90 0,-54 54,-54 54,-90"/>
<text text-anchor="middle" x="27" y="-68.3" font-family="Times,serif" font-size="14.00">Grid</text>
</g>
<!-- b0 -->
<g id="node2" class="node">
<title>b0</title>
<polygon fill="lightyellow" stroke="black" points="149,-144 90,-144 90,-108 149,-108 149,-144"/>
<text text-anchor="middle" x="119.5" y="-122.3" font-family="Times,serif" font-size="14.00">Block 0</text>
</g>
<!-- grid&#45;&gt;b0 -->
<g id="edge1" class="edge">
<title>grid&#45;&gt;b0</title>
<path fill="none" stroke="black" d="M54.18,-87.62C62.55,-92.62 72,-98.26 81.02,-103.64"/>
<polygon fill="black" stroke="black" points="79.47,-106.79 89.85,-108.9 83.05,-100.77 79.47,-106.79"/>
</g>
<!-- b1 -->
<g id="node3" class="node">
<title>b1</title>
<polygon fill="lightyellow" stroke="black" points="149,-90 90,-90 90,-54 149,-54 149,-90"/>
<text text-anchor="middle" x="119.5" y="-68.3" font-family="Times,serif" font-size="14.00">Block 1</text>
</g>
<!-- grid&#45;&gt;b1 -->
<g id="edge2" class="edge">
<title>grid&#45;&gt;b1</title>
<path fill="none" stroke="black" d="M54.18,-72C62.12,-72 71.02,-72 79.61,-72"/>
<polygon fill="black" stroke="black" points="79.85,-75.5 89.85,-72 79.85,-68.5 79.85,-75.5"/>
</g>
<!-- b2 -->
<g id="node4" class="node">
<title>b2</title>
<polygon fill="lightyellow" stroke="black" points="149,-36 90,-36 90,0 149,0 149,-36"/>
<text text-anchor="middle" x="119.5" y="-14.3" font-family="Times,serif" font-size="14.00">Block 2</text>
</g>
<!-- grid&#45;&gt;b2 -->
<g id="edge3" class="edge">
<title>grid&#45;&gt;b2</title>
<path fill="none" stroke="black" d="M54.18,-56.38C62.55,-51.38 72,-45.74 81.02,-40.36"/>
<polygon fill="black" stroke="black" points="83.05,-43.23 89.85,-35.1 79.47,-37.21 83.05,-43.23"/>
</g>
<!-- t0 -->
<g id="node5" class="node">
<title>t0</title>
<ellipse fill="lightgreen" stroke="black" cx="240.86" cy="-230" rx="45.92" ry="26.74"/>
<text text-anchor="middle" x="240.86" y="-233.8" font-family="Times,serif" font-size="14.00">Thread 0</text>
<text text-anchor="middle" x="240.86" y="-218.8" font-family="Times,serif" font-size="14.00">i=0</text>
</g>
<!-- b0&#45;&gt;t0 -->
<g id="edge4" class="edge">
<title>b0&#45;&gt;t0</title>
<path fill="none" stroke="black" d="M135.64,-144.14C148.1,-158.51 166.65,-178.66 185,-194 189.59,-197.84 194.61,-201.62 199.68,-205.2"/>
<polygon fill="black" stroke="black" points="197.98,-208.27 208.21,-211.02 201.92,-202.49 197.98,-208.27"/>
</g>
<!-- t1 -->
<g id="node6" class="node">
<title>t1</title>
<ellipse fill="lightgreen" stroke="black" cx="240.86" cy="-158" rx="45.92" ry="26.74"/>
<text text-anchor="middle" x="240.86" y="-161.8" font-family="Times,serif" font-size="14.00">Thread 1</text>
<text text-anchor="middle" x="240.86" y="-146.8" font-family="Times,serif" font-size="14.00">i=1</text>
</g>
<!-- b0&#45;&gt;t1 -->
<g id="edge5" class="edge">
<title>b0&#45;&gt;t1</title>
<path fill="none" stroke="black" d="M149.09,-133.66C161.08,-136.88 175.39,-140.71 189.06,-144.38"/>
<polygon fill="black" stroke="black" points="188.3,-147.8 198.86,-147.01 190.11,-141.04 188.3,-147.8"/>
</g>
<!-- t2 -->
<g id="node7" class="node">
<title>t2</title>
<text text-anchor="middle" x="240.86" y="-91.3" font-family="Times,serif" font-size="14.00">...</text>
</g>
<!-- b0&#45;&gt;t2 -->
<g id="edge6" class="edge">
<title>b0&#45;&gt;t2</title>
<path fill="none" stroke="black" d="M149.09,-118.57C165.46,-114.32 186.17,-108.94 203.67,-104.4"/>
<polygon fill="black" stroke="black" points="204.75,-107.74 213.54,-101.83 202.99,-100.96 204.75,-107.74"/>
</g>
<!-- t255 -->
<g id="node8" class="node">
<title>t255</title>
<ellipse fill="lightgreen" stroke="black" cx="240.86" cy="-32" rx="55.72" ry="26.74"/>
<text text-anchor="middle" x="240.86" y="-35.8" font-family="Times,serif" font-size="14.00">Thread 255</text>
<text text-anchor="middle" x="240.86" y="-20.8" font-family="Times,serif" font-size="14.00">i=255</text>
</g>
<!-- b0&#45;&gt;t255 -->
<g id="edge7" class="edge">
<title>b0&#45;&gt;t255</title>
<path fill="none" stroke="black" d="M139.92,-107.95C155.45,-93.62 176.05,-74.89 185,-68 189.01,-64.91 193.29,-61.8 197.61,-58.78"/>
<polygon fill="black" stroke="black" points="199.65,-61.63 205.94,-53.11 195.7,-55.85 199.65,-61.63"/>
</g>
</g>
</svg>
